<?xml version="1.0"?>
<svg version="1.1" xmlns="http://www.w3.org/2000/svg" width="400px" height="200px" style="border: dashed 2px #aaa"><path fill="#c73243" d="M118.5,127.378c0,11.259-9.153,17.334-19.683,17.334c-4.86,0-10.611-0.891-15.471-2.592c-1.053-0.405-1.377-0.891-1.377-1.539c0-0.324,0-0.648,0.162-1.053l1.701-5.265c0.243-0.81,0.648-1.296,1.458-1.296c0.324,0,0.729,0.081,1.215,0.243c3.807,1.377,8.019,2.43,12.069,2.43c4.374,0,9.315-2.106,9.315-7.209c0-3.726-2.754-5.751-5.913-7.29l-10.53-5.265c-5.751-2.835-9.558-7.614-9.558-13.932c0-9.882,9.72-15.309,18.711-15.309c5.346,0,9.801,0.81,14.499,2.835c1.053,0.486,1.62,0.972,1.62,1.62c0,0.324-0.081,0.648-0.243,1.053l-1.944,4.941c-0.324,0.891-0.81,1.215-1.377,1.215c-0.405,0-0.81-0.162-1.296-0.324c-3.321-1.377-7.452-2.511-10.692-2.511c-3.807,0-8.181,1.62-8.181,6.156c0,3.321,3.078,5.265,5.751,6.561l8.991,4.374c6.399,3.078,10.773,7.371,10.773,14.823z M165.3585,141.796c0,1.458-0.729,1.944-1.944,1.944l-28.836,0c-1.458,0-2.106-0.486-2.106-2.268l0-51.759c0-1.296,0.648-2.025,1.944-2.025l6.48,0c1.458,0,2.025,0.567,2.025,2.106l0,45.279l20.493,0c1.377,0,1.944,0.648,1.944,1.863l0,4.86z M211.407,141.796c0,1.296-0.567,1.944-1.944,1.944l-30.051,0c-1.62,0-2.187-0.405-2.187-2.187l0-51.84c0-1.296,0.567-2.025,1.863-2.025l30.537,0c1.296,0,1.701,0.486,1.701,1.377l0,0.486l-0.567,4.86c-0.162,1.458-1.053,1.701-2.754,1.701l-20.331,0l0,14.661l18.711,0c1.539,0,2.025,0.648,2.025,1.782l0,4.617c0,1.377-0.567,1.944-1.944,1.944l-18.792,0l0,16.2l21.708,0c1.377,0,2.025,0.567,2.025,1.863l0,4.617z M259.8045,141.796c0,1.296-0.567,1.944-1.944,1.944l-30.051,0c-1.62,0-2.187-0.405-2.187-2.187l0-51.84c0-1.296,0.567-2.025,1.863-2.025l30.537,0c1.296,0,1.701,0.486,1.701,1.377l0,0.486l-0.567,4.86c-0.162,1.458-1.053,1.701-2.754,1.701l-20.331,0l0,14.661l18.711,0c1.539,0,2.025,0.648,2.025,1.782l0,4.617c0,1.377-0.567,1.944-1.944,1.944l-18.792,0l0,16.2l21.708,0c1.377,0,2.025,0.567,2.025,1.863l0,4.617z M314.52,139.771c0,0.729-0.324,1.215-1.296,1.62c-5.346,2.187-10.206,3.321-16.119,3.321c-17.091,0-25.434-12.069-25.434-28.755c0-16.605,9.963-29.322,26.244-29.322c5.589,0,10.611,1.134,15.228,3.402c0.972,0.486,1.296,0.891,1.296,1.377c0,0.324-0.081,0.648-0.243,1.053l-1.863,5.103c-0.243,0.729-0.648,1.053-1.134,1.053c-0.243,0-0.567-0.162-0.891-0.324c-4.05-2.106-7.695-2.916-11.745-2.916c-11.259,0-15.633,10.368-15.633,20.169c0,12.474,5.832,20.412,15.795,20.412c3.888,0,7.857-0.891,11.664-2.592c0.405-0.162,0.729-0.324,0.972-0.324c0.567,0,0.972,0.405,1.296,1.215l1.62,4.374c0.162,0.405,0.243,0.81,0.243,1.134z"/><path fill="#" d=""/></svg>
